<svg xmlns="http://www.w3.org/2000/svg" viewBox="0 0 640 360"><title>Sitov Academy: repair</title><rect width="640" height="360" rx="24" fill="#eff5fb"/><path d="M0 284H640V360H0Z" fill="#d6e3ed"/><rect x="48" y="35" width="165" height="135" rx="8" fill="#c6e1ee" stroke="#9fbecb" stroke-width="4"/><path d="M130 35V170M48 103H213" stroke="#eff5fb" stroke-width="7"/><path d="M69 260H559V275H69Z" fill="#b99772"/><path d="M90 275V340M538 275V340" stroke="#927a65" stroke-width="11"/><g transform="translate(204 165) scale(0.9)"><path d="M-10 65L-13 106M10 65L17 106" stroke="#334861" stroke-width="14" stroke-linecap="round"/><path d="M-18 106H-4M10 106H26" stroke="#273b52" stroke-width="8" stroke-linecap="round"/><path d="M-21 24Q0 10 21 24L20 65H-20Z" fill="#3b6b87"/><g fill="none" stroke="#3b6b87" stroke-width="12" stroke-linecap="round"><path d="M-19 29L-40 48M19 29L46 12"/></g><circle cy="-1" r="18" fill="#d9ac8d"/><path d="M-18-4Q-20-27 0-24Q21-25 18-4L11-13H-10Z" fill="#a5aeb8"/><path d="M-7 5Q0 11 7 5" fill="none" stroke="#805a48" stroke-width="2"/><circle cx="-6" cy="0" r="1.5" fill="#384657"/><circle cx="6" cy="0" r="1.5" fill="#384657"/><path d='M-12 15Q0 23 12 15' stroke='#a5aeb8' stroke-width='5' fill='none'/></g><g transform="translate(435 165) scale(0.9)"><path d="M-10 65L-13 106M10 65L17 106" stroke="#334861" stroke-width="14" stroke-linecap="round"/><path d="M-18 106H-4M10 106H26" stroke="#273b52" stroke-width="8" stroke-linecap="round"/><path d="M-21 24Q0 10 21 24L20 65H-20Z" fill="#5b7d67"/><g fill="none" stroke="#5b7d67" stroke-width="12" stroke-linecap="round"><path d="M-18 28L-29 62M18 28L35 56"/></g><circle cy="-1" r="18" fill="#d9ac8d"/><path d="M-18-4Q-20-27 0-24Q21-25 18-4L11-13H-10Z" fill="#384657"/><path d="M-7 5Q0 11 7 5" fill="none" stroke="#805a48" stroke-width="2"/><circle cx="-6" cy="0" r="1.5" fill="#384657"/><circle cx="6" cy="0" r="1.5" fill="#384657"/></g><path d="M299 232L310 188H355L372 232Z" fill="#e7b966"/><path d="M334 232V253M313 254H354" stroke="#6e8091" stroke-width="7"/><path d="M364 258C402 287 391 295 414 290" stroke="#536776" stroke-width="3" fill="none"/><path d="M258 246L277 256M268 236L250 254" stroke="#718a9b" stroke-width="6" stroke-linecap="round"/></svg>