<svg xmlns="http://www.w3.org/2000/svg" viewBox="0 0 640 360"><title>Sitov Academy: neue Bildaufgabe</title><rect width="640" height="360" rx="24" fill="#edf5fa"/><path d="M0 283H640V360H0Z" fill="#d5e3ed"/><rect x="22" y="38" width="145" height="218" rx="8" fill="#d0e0eb"/><path d="M25 101H164M25 169H164" stroke="#fff" stroke-width="7"/><rect x="46" y="61" width="24" height="30" fill="#b99b72"/><rect x="104" y="120" width="30" height="34" fill="#799d85"/><g transform="translate(278 186)"><path d="M-9 56L-16 99M10 56L21 99" stroke="#344960" stroke-width="13" stroke-linecap="round"/><path d="M-22 20Q0 9 22 20V60H-22Z" fill="#4e7289"/><path d="M-20 24L-37 47M20 24L49 42" stroke="#4e7289" stroke-width="12" stroke-linecap="round"/><circle r="18" fill="#d5a688"/><path d="M-19-3Q-22-29 0-25Q22-25 19-2L12-13H-12Z" fill="#a4abb3"/><path d="M-7 6Q0 11 7 6" stroke="#805a49" stroke-width="2" fill="none"/><circle cx="-6" cy="1" r="1.5" fill="#334861"/><circle cx="6" cy="1" r="1.5" fill="#334861"/></g><g transform="translate(470 180)"><path d="M-9 56L-16 99M10 56L21 99" stroke="#344960" stroke-width="13" stroke-linecap="round"/><path d="M-22 20Q0 9 22 20V60H-22Z" fill="#658272"/><path d="M-20 24L-37 47M20 24L49 42" stroke="#658272" stroke-width="12" stroke-linecap="round"/><circle r="18" fill="#d5a688"/><path d="M-19-3Q-22-29 0-25Q22-25 19-2L12-13H-12Z" fill="#384454"/><path d="M-7 6Q0 11 7 6" stroke="#805a49" stroke-width="2" fill="none"/><circle cx="-6" cy="1" r="1.5" fill="#334861"/><circle cx="6" cy="1" r="1.5" fill="#334861"/></g><path d="M176 262H366V280H176Z" fill="#b59873"/><path d="M198 282V333M345 282V333" stroke="#9b846c" stroke-width="10"/><path d="M390 269V243Q390 233 404 233H526Q540 233 540 245V270Z" fill="#bca789"/><rect x="401" y="219" width="42" height="24" fill="#738f7b"/><rect x="459" y="209" width="38" height="34" fill="#bd9976"/><path d="M439 309H489M451 309V325M474 309V325" stroke="#a6bccd" stroke-width="8"/></svg>